<?xml version="1.0" encoding="utf-8"?>
<!-- Generator: Adobe Illustrator 23.0.0, SVG Export Plug-In . SVG Version: 6.00 Build 0)  -->
<svg version="1.1" id="Layer_1" xmlns="http://www.w3.org/2000/svg" xmlns:xlink="http://www.w3.org/1999/xlink" x="0px" y="0px"
	 viewBox="0 0 565.8 475.6" style="enable-background:new 0 0 565.8 475.6;" xml:space="preserve">
<style type="text/css">
	.st0{fill:"currentColor";}
</style>
<g>
	<g>
		<path class="st0" d="M417.7,332.9H168.8c-10.7,0-19.3,8.6-19.3,19.3V444c0,10.7,8.6,19.3,19.3,19.3h248.9
			c10.7,0,19.3-8.6,19.3-19.3v-91.8C437,341.6,428.4,332.9,417.7,332.9z M408.2,363.7H178.4c-4.2,0-7.6-3.4-7.6-7.6
			c0-4.2,3.4-7.6,7.6-7.6h229.8c4.2,0,7.6,3.4,7.6,7.6C415.8,360.4,412.4,363.7,408.2,363.7z"/>
	</g>
	<g>
		<path class="st0" d="M299.4,12.3c-86.4,0-156.5,70.1-156.5,156.5S213,325.4,299.4,325.4c86.4,0,156.5-70.1,156.5-156.5
			S385.9,12.3,299.4,12.3z M242.7,70.1c-12.4,6.7-35.3,22.3-49,51.8c-12.2,26.4-10.9,51.3-9.1,63.8c0.6,4.2-2.3,8-6.4,8.6
			c-0.4,0.1-0.8,0.1-1.1,0.1c-3.7,0-7-2.7-7.5-6.5c-2.6-17.3-2.8-43.9,10.4-72.4c15.5-33.5,41.5-51.2,55.6-58.8
			c3.7-2,8.3-0.6,10.3,3.1C247.8,63.5,246.4,68.1,242.7,70.1z M267.7,57.6c-2.6,0-5.2-1.3-6.6-3.8c-2.1-3.6-0.9-8.3,2.7-10.4
			c6.4-3.7,13.2-6.4,20.3-8.1c6.5-1.6,13.2-2.3,20-2c4.2,0.1,7.5,3.6,7.3,7.8c-0.1,4.1-3.5,7.3-7.6,7.3h-0.3
			c-5.3-0.2-10.7,0.4-15.9,1.6c-5.7,1.4-11.1,3.5-16.2,6.5C270.3,57.3,269,57.6,267.7,57.6z M299.4,196.2
			c-15.1,0-27.4-12.3-27.4-27.4c0-15.1,12.3-27.4,27.4-27.4c15.1,0,27.4,12.2,27.4,27.4C326.8,183.9,314.5,196.2,299.4,196.2z"/>
	</g>
</g>
</svg>
