<?xml version="1.0" encoding="utf-8"?>
<!-- Generator: Adobe Illustrator 23.0.0, SVG Export Plug-In . SVG Version: 6.00 Build 0)  -->
<svg version="1.1" id="Layer_1" xmlns="http://www.w3.org/2000/svg" xmlns:xlink="http://www.w3.org/1999/xlink" x="0px" y="0px"
	 viewBox="0 0 565.8 475.6" style="enable-background:new 0 0 565.8 475.6;" xml:space="preserve">
<style type="text/css">
	.st0{fill:"currentColor";}
</style>
<g>
	<path class="st0" d="M291.9,8.1C161.5,5.6,55.4,111.8,57.8,242.2c2.3,122.9,102.5,223.1,225.4,225.4
		c130.4,2.4,236.5-103.7,234.1-234.1C515.1,110.6,414.8,10.3,291.9,8.1z M460.1,124.8l11.7,20.2l-54.5,31.5l-11.7-20.2L460.1,124.8z
		 M275.9,31.9h23.4v63h-23.4V31.9z M194.7,53.7l31.5,54.5L206,119.9l-31.5-54.5L194.7,53.7z M81.6,226.1h63v23.4h-63V226.1z
		 M115.1,350.9l-11.7-20.2l54.5-31.5l11.7,20.2L115.1,350.9z M158,176.5L103.4,145l11.7-20.2l54.5,31.5L158,176.5z M194.7,422
		l-20.2-11.7l31.5-54.5l20.2,11.7L194.7,422z M220.2,275.8c-20.4,2.6-37.5-14.6-35-35c1.7-13.9,13-25.1,26.9-26.9
		c20.4-2.6,37.5,14.6,35,35C245.3,262.8,234.1,274,220.2,275.8z M299.3,443.8h-23.4v-63h23.4V443.8z M291.6,346.5
		c-20.4,2.6-37.5-14.6-35-35c1.7-13.9,13-25.1,26.9-26.9c20.4-2.6,37.5,14.6,35,35C316.7,333.5,305.5,344.8,291.6,346.5z
		 M291.6,201.5c-20.4,2.6-37.5-14.6-35-35c1.8-13.9,13-25.1,26.9-26.9c20.4-2.6,37.5,14.6,35,35
		C316.7,188.5,305.5,199.7,291.6,201.5z M331.6,248.9c-2.6-20.4,14.6-37.5,35-35c13.9,1.7,25.1,13,26.9,26.9
		c2.6,20.4-14.6,37.5-35,35C344.6,274,333.4,262.8,331.6,248.9z M380.4,422l-31.5-54.5l20.2-11.7l31.5,54.5L380.4,422z M369.1,119.9
		l-20.2-11.7l31.5-54.5l20.2,11.7L369.1,119.9z M460.1,350.9l-54.5-31.5l11.7-20.2l54.5,31.5L460.1,350.9z M430.5,249.5v-23.4h63
		v23.4H430.5z"/>
</g>
</svg>
