<?xml version="1.0" encoding="utf-8"?>
<!-- Generator: Adobe Illustrator 23.0.0, SVG Export Plug-In . SVG Version: 6.00 Build 0)  -->
<svg version="1.1" id="Layer_1" xmlns="http://www.w3.org/2000/svg" xmlns:xlink="http://www.w3.org/1999/xlink" x="0px" y="0px"
	 viewBox="0 0 565.8 475.6" style="enable-background:new 0 0 565.8 475.6;" xml:space="preserve">
<style type="text/css">
	.st0{fill:"currentColor";}
</style>
<g>
	<g>
		<path class="st0" d="M162.9,161.1l-15.8-1.9c2-17.1,9.7-49.5,38.2-75c19-16.8,43.6-25.8,69.8-25.8h10v15.9h-10
			c-22.3,0-43.2,7.6-58.8,21.3C170.4,118.9,164.3,149.2,162.9,161.1z"/>
	</g>
	<g>
		<path class="st0" d="M424.4,425.7H210.1V192.4c0-29.7,24.1-53.8,53.8-53.8h106.7c29.7,0,53.8,24.1,53.8,53.8V425.7z"/>
	</g>
	<g>
		<path class="st0" d="M210.5,425.7H424c4.2,0,7.6,3.4,7.6,7.6v28.9c0,4.2-3.4,7.6-7.6,7.6H210.5c-4.2,0-7.6-3.4-7.6-7.6v-28.9
			C202.9,429.1,206.3,425.7,210.5,425.7z"/>
	</g>
	<g>
		<path class="st0" d="M342.2,145.8h-52.1v-50c0-4.5,3.6-8.1,8.1-8.1h35.9c4.5,0,8.1,3.6,8.1,8.1V145.8z"/>
	</g>
	<g>
		<path class="st0" d="M460,30.1H275.2c-2,0-3.6-1.6-3.6-3.6V9.5c0-2,1.6-3.6,3.6-3.6H460c2,0,3.6,1.6,3.6,3.6v17.1
			C463.6,28.5,462,30.1,460,30.1z"/>
	</g>
	<g>
		<path class="st0" d="M453.3,114L315.7,34.5c-1.7-1-2.3-3.2-1.3-4.9l8.5-14.8c1-1.7,3.2-2.3,4.9-1.3L465.5,93
			c1.7,1,2.3,3.2,1.3,4.9l-8.5,14.8C457.3,114.4,455.1,115,453.3,114z"/>
	</g>
	<g>
		<path class="st0" d="M335.8,87.7h-74.9c-2,0-3.6-1.6-3.6-3.6V48.7c0-2,1.6-3.6,3.6-3.6h74.9c2,0,3.6,1.6,3.6,3.6v35.4
			C339.4,86.1,337.8,87.7,335.8,87.7z"/>
	</g>
	<g>
		<path class="st0" d="M301.7,50.9V30.2c0-2,1.6-3.6,3.6-3.6h27.5c2,0,3.6,1.6,3.6,3.6v20.8c0,2-1.6,3.6-3.6,3.6h-27.5
			C303.3,54.5,301.7,52.9,301.7,50.9z"/>
	</g>
	<g>
		<path class="st0" d="M138.8,411.8L31.7,375.6c-9-3-13.2-13.2-9.1-21.8l100.9-208.7c3.4-7,11.4-10.5,18.8-8.2l41.8,12.9
			c7.4,2.3,12.1,9.7,10.9,17.4l-35.5,232C158,409,148.1,415,138.8,411.8z"/>
	</g>
</g>
</svg>
