<?xml version="1.0" encoding="utf-8"?>
<!-- Generator: Adobe Illustrator 23.0.0, SVG Export Plug-In . SVG Version: 6.00 Build 0)  -->
<svg version="1.1" id="Layer_1" xmlns="http://www.w3.org/2000/svg" xmlns:xlink="http://www.w3.org/1999/xlink" x="0px" y="0px"
	 viewBox="0 0 565.8 475.6" style="enable-background:new 0 0 565.8 475.6;" xml:space="preserve">
<style type="text/css">
	.st0{fill:"currentColor";}
</style>
<g>
	<path class="st0" d="M270.6,146.9v321.8H111.3c-5.2,0-9.4-4.2-9.4-9.4V354.7h166.4v-24.5H101.9v-63.6h166.4v-24.5H101.9v-51.1
		c0-3.7,2.1-6.9,5.4-8.5c14.3-6.9,48.9-27.1,65.1-70c14.8-39.3,5.5-74.5-1.9-92.9c-2.4-6.1,2.1-12.7,8.7-12.7h47l-11.3,4.6
		L270.6,146.9z"/>
	<polygon class="st0" points="323.1,6.9 282.6,111.5 239.4,6.9 	"/>
	<path class="st0" d="M297.6,242.2v24.5h166.2v63.6H297.6v24.5h166.2v104.6c0,5.2-4.2,9.4-9.4,9.4H295.1v-322l52.5-135.3l-11.4-4.4
		h56.3c7.1,0,11.5,7.5,8.3,13.8c-9.1,17.6-20.5,50.1-9.3,88c13.9,46.6,51.9,67.4,66.8,74c3.4,1.5,5.6,4.9,5.6,8.6v51H297.6z"/>
</g>
</svg>
