<?xml version="1.0" encoding="utf-8"?>
<!-- Generator: Adobe Illustrator 23.0.0, SVG Export Plug-In . SVG Version: 6.00 Build 0)  -->
<svg version="1.1" id="Layer_1" xmlns="http://www.w3.org/2000/svg" xmlns:xlink="http://www.w3.org/1999/xlink" x="0px" y="0px"
	 viewBox="0 0 565.8 475.6" style="enable-background:new 0 0 565.8 475.6;" xml:space="preserve">
<style type="text/css">
	.st0{fill:"currentColor";}
</style>
<g>
	<path class="st0" d="M193.1,320.3c-9.3,13.1-15.8,28.3-18.7,44.8c-0.9,5-5.1,8.7-10.1,8.7H15.7c-6,0-10.8-5-10.4-11
		c3.6-61.2,27-117.1,63.9-161.4c3.9-4.7,11-5,15.4-0.7L192,306.7C195.6,310.2,196,316.3,193.1,320.3z"/>
	<path class="st0" d="M272.6,112.3v152.1c0,5-3.4,9.3-8.2,10.6l-3,0.8l-29.1-55.3c-0.3-0.6-0.7-1.1-1.1-1.6l-46.7-53.8l26.7,64.8
		c0.1,0.4,0.3,0.8,0.5,1.1l30.1,50.8c-2.2,0.8-4.3,1.8-6.4,2.7c-5.1,2.5-10.1,5.3-14.7,8.5c-4.1,2.8-9.7,2.4-13.3-1.1L99.4,185.2
		c-4.3-4.3-4.1-11.3,0.4-15.3c43.9-38.4,99.9-63.3,161.5-68C267.4,101.5,272.6,106.3,272.6,112.3z"/>
	<path class="st0" d="M550,373.8l-148.4,0c-4.9,0-9.4-4-10.3-8.8c-2.8-16-9-30.7-17.9-43.5c-2.8-4-2.4-10,1.1-13.4l106.7-107.2
		c4.3-4.4,11.5-4,15.4,0.7c36.9,44.3,60.2,100.1,63.8,161.2C560.8,368.7,556,373.8,550,373.8z"/>
	<path class="st0" d="M466.7,185.4l-107,107.5c-3.5,3.5-9.5,3.9-13.5,1.1c-12.9-9.1-27.9-15.5-44.1-18.3c-4.9-0.8-8.9-5.4-8.9-10.4
		V112.3c0-6.1,5.2-10.9,11.2-10.4c61.7,4.7,117.9,29.7,161.8,68.3C470.7,174.1,471,181.1,466.7,185.4z"/>
	<g>
		<path class="st0" d="M367.8,373.8H198c-6.7,0-11.8-6.2-10.3-12.7c3.5-15.4,10.6-29.4,20.5-41.1c4.1-4.8,8.7-9.3,13.6-13.3
			c5.9-4.7,12.3-8.8,19.2-12.1c2.3-1.1,4.5-2.1,6.9-2.9l19.7,33.2v0c-1.2,2.4-1.8,5.1-1.8,7.9c0,10.2,8.3,18.5,18.5,18.5
			c10.2,0,18.5-8.3,18.5-18.5c0-10.2-8.3-18.5-18.5-18.5c-0.8,0-1.6,0.1-2.4,0.2l-14.7-27.9c2.2-0.4,4.4-0.7,6.7-0.9
			c3-0.3,6-0.4,9.1-0.4c3.1,0,6.1,0.1,9.1,0.4c20.2,1.9,38.6,9.9,53.3,22.1c4.8,4.1,9.3,8.5,13.3,13.4c9.3,11.4,16.1,25,19.5,39.8
			C379.6,367.5,374.5,373.8,367.8,373.8z"/>
	</g>
</g>
</svg>
