<?xml version="1.0" encoding="utf-8"?>
<!-- Generator: Adobe Illustrator 23.0.0, SVG Export Plug-In . SVG Version: 6.00 Build 0)  -->
<svg version="1.1" id="Layer_1" xmlns="http://www.w3.org/2000/svg" xmlns:xlink="http://www.w3.org/1999/xlink" x="0px" y="0px"
	 viewBox="0 0 565.8 475.6" style="enable-background:new 0 0 565.8 475.6;" xml:space="preserve">
<style type="text/css">
	.st0{fill:"currentColor";}
</style>
<g>
	<path class="st0" d="M509.1,376.1l-69.2,83.7c-7.1,8.6-20.3,9.1-28.4,0.9L297.4,345.8c-7.1-7.2-7.6-18.5-1.1-26l55.5-63.9
		c6.5-7.5,17.8-8.6,25.9-2.5l127.8,95.1C514.3,355.2,516,367.8,509.1,376.1z"/>
	<path class="st0" d="M235.1,172.4l-32,37L65.8,96.3c-0.6-0.5-1-1.1-1.1-1.8L53.5,51.2c-0.6-2.4,1.4-4.6,3.9-4.3l42.3,6.7
		c0.6,0.1,1.2,0.4,1.7,0.8L235.1,172.4z"/>
	<path class="st0" d="M121,465.6l-69.6-75.1c-7.1-7.6-6.3-19.6,1.7-26.3l278-230.8l50.8,50.8L148.3,464.9
		C141.3,473.3,128.5,473.6,121,465.6z"/>
	<path class="st0" d="M428.2,4.3L386,5.6c-2.9,0.1-36,1.9-53.1,29.7c-10.5,17.1-9.1,34.5-8.3,40.4c2.2,19.2,4.3,38.5,6.5,57.7
		l50.8,50.8c3.6-1.7,9.5-3.9,17-3.8c6.8,0.1,12.6,1.9,17.2,4.3c15,7.6,32.2,10.5,48.3,5.5c9.9-3.1,16.9-7,20.9-9.8
		c33.7-23.6,34-81.8,33.9-87.8c-7.1,8.1-18.8,19.3-35.9,27.7c-7.8,3.9-15.2,6.4-21.6,8c-19.2,6.4-40.2,2.2-54.6-11.1
		c-17.8-16.6-16.9-39.4-16.8-42.6c0.1-6.9,1-15.5,4-24.9C402.5,24.6,420.2,10,428.2,4.3z"/>
</g>
</svg>
