<?xml version="1.0" encoding="utf-8"?>
<!-- Generator: Adobe Illustrator 23.0.0, SVG Export Plug-In . SVG Version: 6.00 Build 0)  -->
<svg version="1.1" id="Layer_1" xmlns="http://www.w3.org/2000/svg" xmlns:xlink="http://www.w3.org/1999/xlink" x="0px" y="0px"
	 viewBox="0 0 565.8 475.6" style="enable-background:new 0 0 565.8 475.6;" xml:space="preserve">
<style type="text/css">
	.st0{fill:"currentColor";}
</style>
<g>
	<g>
		<path class="st0" d="M356.2,216.3H202.9c-8.2,0-14.8,6.6-14.8,14.8v22.1h183v-22.1C371,222.9,364.4,216.3,356.2,216.3z"/>
	</g>
	<g>
		<rect x="272.6" y="78.9" class="st0" width="16.1" height="137.4"/>
	</g>
	<g>
		<path class="st0" d="M280.6,196.7l-65.4-17.3V61H346v118.4L280.6,196.7z M231.3,167l49.3,13.1L330,167V77.1h-98.7V167z"/>
	</g>
	<g>
		<rect x="176.5" y="8" class="st0" width="205.4" height="36.9"/>
	</g>
	<g>
		<rect x="201.8" y="44.9" class="st0" width="154.8" height="29.3"/>
	</g>
	<g>
		<rect x="223.7" y="74.2" class="st0" width="110.9" height="16.8"/>
	</g>
	<g>
		<circle class="st0" cx="140.3" cy="349" r="15.9"/>
	</g>
	<g>
		<circle class="st0" cx="195.3" cy="295.5" r="15.9"/>
	</g>
	<g>
		<circle class="st0" cx="216.3" cy="377.2" r="15.9"/>
	</g>
	<g>
		<circle class="st0" cx="278.5" cy="377.2" r="15.9"/>
	</g>
	<g>
		<circle class="st0" cx="342.1" cy="377.2" r="15.9"/>
	</g>
	<g>
		<circle class="st0" cx="468.7" cy="400.3" r="15.9"/>
	</g>
	<g>
		<circle class="st0" cx="373.9" cy="448.1" r="15.9"/>
	</g>
	<g>
		<circle class="st0" cx="278.5" cy="453.9" r="15.9"/>
	</g>
	<g>
		<circle class="st0" cx="192.4" cy="448.1" r="15.9"/>
	</g>
	<g>
		<circle class="st0" cx="92.6" cy="400.3" r="15.9"/>
	</g>
	<g>
		<circle class="st0" cx="277.4" cy="304.9" r="15.9"/>
	</g>
	<g>
		<circle class="st0" cx="360.5" cy="295.5" r="15.9"/>
	</g>
	<g>
		<circle class="st0" cx="412.6" cy="349" r="15.9"/>
	</g>
</g>
</svg>
