<?xml version="1.0" encoding="utf-8"?>
<!-- Generator: Adobe Illustrator 23.0.0, SVG Export Plug-In . SVG Version: 6.00 Build 0)  -->
<svg version="1.1" id="Layer_1" xmlns="http://www.w3.org/2000/svg" xmlns:xlink="http://www.w3.org/1999/xlink" x="0px" y="0px"
	 viewBox="0 0 565.8 475.6" style="enable-background:new 0 0 565.8 475.6;" xml:space="preserve">
<style type="text/css">
	.st0{ fill="currentColor";}
</style>
<g>
	<g>
		<rect x="14.3" y="22.2" class="st0" width="532.9" height="65.1"/>
	</g>
	<g>
		<path class="st0" d="M228,455.8H122.5v-192c0-29.1,23.6-52.7,52.7-52.7h0c29.1,0,52.7,23.6,52.7,52.7V455.8z"/>
	</g>
	<g>
		<path class="st0" d="M144,207.3h-33.4c-12.9,0-23.4-10.5-23.4-23.4V84.4h11V184c0,6.8,5.5,12.3,12.3,12.3H144V207.3z"/>
	</g>
	<g>
		<path class="st0" d="M208.1,231.1h-69.6v-60.6h69.6V231.1z M149.5,220.1h47.5v-38.6h-47.5V220.1z"/>
	</g>
	<g>
		<path class="st0" d="M389.4,455.8H283.9v-192c0-29.1,23.6-52.7,52.7-52.7h0c29.1,0,52.7,23.6,52.7,52.7V455.8z"/>
	</g>
	<g>
		<path class="st0" d="M305.4,207.3H272c-12.9,0-23.4-10.5-23.4-23.4V84.4h11V184c0,6.8,5.5,12.3,12.3,12.3h33.4V207.3z"/>
	</g>
	<g>
		<path class="st0" d="M369.5,231.1h-69.6v-60.6h69.6V231.1z M310.9,220.1h47.5v-38.6h-47.5V220.1z"/>
	</g>
	<g>
		<path class="st0" d="M550.8,455.8H445.3v-192c0-29.1,23.6-52.7,52.7-52.7h0c29.1,0,52.7,23.6,52.7,52.7V455.8z"/>
	</g>
	<g>
		<path class="st0" d="M466.8,207.3h-33.4c-12.9,0-23.4-10.5-23.4-23.4V84.4h11V184c0,6.8,5.5,12.3,12.3,12.3h33.4V207.3z"/>
	</g>
	<g>
		<path class="st0" d="M530.8,231.1h-69.6v-60.6h69.6V231.1z M472.3,220.1h47.5v-38.6h-47.5V220.1z"/>
	</g>
</g>
</svg>
